<svg width="130" height="74" viewBox="0 0 130 74" fill="none" xmlns="http://www.w3.org/2000/svg">
<g clip-path="url(#clip0_452_258)">
<mask id="mask0_452_258" style="mask-type:luminance" maskUnits="userSpaceOnUse" x="0" y="0" width="130" height="74">
<path d="M129.801 0.681641H0.800781V73.6816H129.801V0.681641Z" fill="white"/>
</mask>
<g mask="url(#mask0_452_258)">
<path d="M35.586 60.9863C34.2775 60.9863 33.078 61.0957 31.8785 61.3146H31.7695V73.463H33.5142V69.8513C34.1684 70.0702 34.8227 70.1797 35.477 70.1797C38.4212 70.1797 39.9478 68.538 39.9478 65.3641C39.9478 62.4091 38.5302 60.9863 35.586 60.9863ZM38.2031 65.3641C38.2031 67.553 37.3307 68.6474 35.477 68.6474C34.7137 68.6474 34.0594 68.538 33.5142 68.2097V62.7374C34.0594 62.628 34.7137 62.5185 35.477 62.5185C37.3307 62.5185 38.2031 63.3941 38.2031 65.3641Z" fill="white"/>
<path d="M42.8918 61.9714L42.6737 60.877H41.3652V70.1798H43.2189V63.5036C43.8732 62.7375 44.7455 62.4092 45.7269 62.4092H45.836V60.877H45.7269C44.5275 60.9864 43.6551 61.3147 42.8918 61.9714Z" fill="white"/>
<path d="M50.5259 60.9863C47.5817 60.9863 46.1641 62.5185 46.1641 65.583C46.1641 68.6474 47.6907 70.1797 50.5259 70.1797C53.3611 70.1797 54.8877 68.6474 54.8877 65.583C54.8877 62.5185 53.4701 60.9863 50.5259 60.9863ZM53.143 65.583C53.143 67.6624 52.2706 68.7569 50.5259 68.7569C48.7812 68.7569 47.9088 67.7719 47.9088 65.583C47.9088 63.3941 48.7812 62.5185 50.5259 62.5185C52.2706 62.5185 53.143 63.5035 53.143 65.583Z" fill="white"/>
<path d="M60.5571 64.7075H59.1395C58.2672 64.7075 57.9401 64.3792 57.9401 63.6131C57.9401 62.847 58.5943 62.4092 60.121 62.4092C61.2114 62.4092 62.1928 62.6281 63.1742 62.9564H63.2832V61.3147H63.1742C62.1928 60.9864 61.1024 60.877 60.0119 60.877C57.5039 60.877 56.1953 61.7525 56.1953 63.6131C56.1953 65.4737 57.1767 66.3492 59.1395 66.3492H60.5571C61.4295 66.3492 61.8657 66.6776 61.8657 67.4437C61.8657 68.2098 61.2114 68.6476 59.7938 68.6476C58.7034 68.6476 57.722 68.4287 56.7406 68.1003H56.6315V69.742H56.7406C57.722 70.0704 58.8124 70.1798 59.9029 70.1798C62.4109 70.1798 63.7194 69.3042 63.7194 67.4437C63.6104 65.6925 62.629 64.7075 60.5571 64.7075Z" fill="white"/>
<path d="M68.8439 60.9863C67.5354 60.9863 66.3359 61.0957 65.1364 61.3146H65.0273V73.463H66.8811V69.8513C67.5354 70.0702 68.1896 70.1797 68.8439 70.1797C71.7881 70.1797 73.3147 68.538 73.3147 65.3641C73.2057 62.4091 71.7881 60.9863 68.8439 60.9863ZM71.461 65.3641C71.461 67.553 70.5886 68.6474 68.7349 68.6474C67.9716 68.6474 67.3173 68.538 66.7721 68.2097V62.7374C67.3173 62.628 67.9716 62.5185 68.7349 62.5185C70.5886 62.5185 71.461 63.3941 71.461 65.3641Z" fill="white"/>
<path d="M78.8771 60.9863C75.9329 60.9863 74.4062 62.5185 74.4062 65.4735C74.4062 68.6474 75.9329 70.1797 79.0952 70.1797C80.2947 70.1797 81.1671 70.0702 82.0394 69.9608H82.1485V68.4286H82.0394C81.2761 68.6474 80.5128 68.6474 79.6404 68.6474C77.4595 68.6474 76.3691 67.7719 76.26 66.1302H82.3665V66.0208C82.6937 64.1602 82.4756 62.8468 81.7123 61.9713C81.058 61.3146 80.1856 60.9863 78.8771 60.9863ZM80.6217 64.598H76.26C76.3691 63.1752 77.1324 62.4091 78.659 62.4091C79.3133 62.4091 79.8585 62.628 80.1857 62.9563C80.5128 63.3941 80.6217 63.9413 80.6217 64.598Z" fill="white"/>
<path d="M85.8548 61.9714L85.6367 60.877H84.3281V70.1798H86.1819V63.5036C86.8362 62.7375 87.7085 62.4092 88.6899 62.4092H88.799V60.877H88.6899C87.4904 60.9864 86.6181 61.3147 85.8548 61.9714Z" fill="white"/>
<path d="M91.635 58.7969H89.7812V60.3291H91.635V58.7969Z" fill="white"/>
<path d="M91.635 60.9863H89.7812V70.2891H91.635V60.9863Z" fill="white"/>
<path d="M94.5784 59.4531H93.3789V67.6615C93.3789 69.3032 94.1422 70.1788 95.7779 70.1788H97.0864V68.6465H96.2141C95.5598 68.6465 95.2327 68.3182 95.2327 67.5521V62.5176H97.0864V60.9854H95.0146L94.5784 59.4531Z" fill="white"/>
<path d="M104.502 60.9863L101.994 67.7719L99.4862 60.9863H97.5234L101.013 70.1797C100.577 71.1647 99.8133 71.8214 98.9409 72.2591L98.8319 72.3686L99.5952 73.6819H99.7043C101.013 73.2441 102.103 72.2591 102.758 70.508L106.574 61.0957C106.465 60.9863 104.502 60.9863 104.502 60.9863Z" fill="white"/>
<path d="M6.14398 42.0527C4.83544 42.0527 3.41786 42.2716 2.10932 42.7094L1.89123 42.8188V45.336L2.32741 45.2266C3.63595 44.8983 4.94449 44.6794 6.14398 44.6794C9.19723 44.6794 9.19723 45.9927 9.19723 46.3211V47.0872C8.32487 46.8683 7.34347 46.8683 6.25302 46.8683C2.65455 46.8683 0.800781 48.2911 0.800781 51.0272C0.800781 54.5295 3.5269 55.2956 5.92589 55.2956C7.34347 55.2956 8.65201 55.0767 9.74246 54.5295L10.5058 55.2956H12.1415V46.4305C12.0324 43.4755 10.0696 42.0527 6.14398 42.0527ZM6.25302 49.2761C7.34347 49.2761 8.32487 49.3855 9.19723 49.495V52.0122C8.32487 52.5594 7.23443 52.7783 5.92589 52.7783C3.96308 52.7783 3.74499 51.7933 3.74499 51.0272C3.74499 50.2611 3.96308 49.2761 6.25302 49.2761Z" fill="white"/>
<path d="M16.5028 37.4551H13.5586V55.2947H16.5028V37.4551Z" fill="white"/>
<path d="M20.3198 39.9727H18.248V51.5739C18.248 53.9817 19.4475 55.295 21.7374 55.295H23.7002V52.7778H22.2826C21.7374 52.7778 21.0831 52.5589 21.0831 51.355V44.46H23.7002V41.9427H20.756L20.3198 39.9727Z" fill="white"/>
<path d="M30.7875 42.0527C26.5348 42.0527 24.4629 44.2416 24.4629 48.51C24.4629 52.9972 26.7528 55.2956 31.1146 55.2956C32.7503 55.2956 34.0588 55.1861 35.2583 54.9672L35.5855 54.8578V52.3405L35.1493 52.45C34.0588 52.6689 32.9684 52.7783 31.8779 52.7783C29.0428 52.7783 27.5162 51.7933 27.4071 49.6044H35.8036V49.2761C36.2397 46.6494 35.9126 44.6794 34.8222 43.4755C34.0588 42.4905 32.6413 42.0527 30.7875 42.0527ZM30.4604 44.4605C31.3327 44.4605 32.096 44.6794 32.5322 45.1172C32.9684 45.5549 33.0774 46.2116 33.1865 46.9777H27.5162C27.6252 45.336 28.6066 44.4605 30.4604 44.4605Z" fill="white"/>
<path d="M40.0568 43.366L39.7296 42.0527H37.5488V55.2956H40.493V45.9927C41.3653 45.1172 42.4558 44.6794 43.7643 44.6794H44.0914V42.1621H43.7643C42.3467 42.0527 41.1472 42.4905 40.0568 43.366Z" fill="white"/>
<path d="M52.2702 42.0527C50.8527 42.0527 49.326 42.4905 47.9085 43.4755L47.5813 42.0527H45.4004V55.2956H48.3446V45.9927C49.326 45.1172 50.4165 44.5699 51.616 44.5699C53.2516 44.5699 54.015 45.336 54.015 46.9777V55.2956H56.9592V47.0872C56.9592 43.8038 55.3235 42.0527 52.2702 42.0527Z" fill="white"/>
<path d="M63.6108 42.0527C62.3023 42.0527 60.8847 42.2716 59.5761 42.7094L59.358 42.8188V45.336L59.7942 45.2266C61.1028 44.8983 62.4113 44.6794 63.6108 44.6794C66.664 44.6794 66.6641 45.9927 66.6641 46.3211V47.0872C65.7917 46.9777 64.8103 46.8683 63.7198 46.8683C60.1214 46.8683 58.2676 48.2911 58.2676 51.1366C58.2676 54.6389 60.9937 55.405 63.3927 55.405C64.8103 55.405 66.1188 55.1861 67.2093 54.6389L67.9726 55.405H69.4992V46.5399C69.4992 43.4755 67.5364 42.0527 63.6108 42.0527ZM63.7198 49.2761C64.8103 49.2761 65.7917 49.3855 66.6641 49.495V52.0122C65.7917 52.5594 64.7012 52.7783 63.3927 52.7783C61.4299 52.7783 61.2118 51.7933 61.2118 51.0272C61.2118 50.2611 61.4299 49.2761 63.7198 49.2761Z" fill="white"/>
<path d="M72.771 39.9727H70.6992V51.5739C70.6992 53.9817 71.8987 55.295 74.1886 55.295H76.1514V52.7778H74.7338C74.1886 52.7778 73.5343 52.5589 73.5343 51.355V44.46H76.0424V41.9427H73.0981L72.771 39.9727Z" fill="white"/>
<path d="M78.1133 39.9724H81.0575L81.6027 37.4551H78.1133V39.9724Z" fill="white"/>
<path d="M81.0575 42.0527H78.1133V55.2956H81.0575V42.0527Z" fill="white"/>
<path d="M91.6343 42.0527L88.2539 51.1366L84.9826 42.0527H81.8203L86.8364 55.2956H89.3444L94.7966 42.0527H91.6343Z" fill="white"/>
<path d="M105.047 43.5849C104.174 42.5999 102.757 42.0527 101.012 42.0527C96.7594 42.0527 94.6875 44.2416 94.6875 48.51C94.6875 52.9972 96.9774 55.2956 101.339 55.2956C102.975 55.2956 104.283 55.1861 105.483 54.9672L105.81 54.8578V52.3405L105.374 52.45C104.283 52.6689 103.193 52.7783 102.103 52.7783C99.2674 52.7783 97.7408 51.7933 97.6317 49.6044H106.573V49.2761C107.01 46.7588 106.137 44.7888 105.047 43.5849ZM100.685 44.4605C101.557 44.4605 102.321 44.6794 102.757 45.1172C103.193 45.5549 103.411 46.2116 103.411 46.9777H97.7408C97.8498 45.336 98.8312 44.4605 100.685 44.4605Z" fill="white"/>
<path d="M129.801 6.1543L113.335 18.7405C111.699 20.1633 110.936 22.0239 110.936 23.775V73.1348C115.298 72.4781 115.734 68.6475 115.734 67.1153V43.5846C115.734 41.724 116.606 39.9729 118.351 38.6595L126.966 32.0928C128.601 30.8889 129.692 28.9189 129.692 26.8395V12.6116L129.801 6.1543ZM124.785 20.1633V25.1978C124.785 26.6206 124.13 28.0434 122.822 29.0284L118.133 32.5306C117.261 33.1873 115.952 32.5306 115.952 31.4362V25.3072C115.952 24.3222 116.279 22.6805 118.024 21.3672L124.785 16.3327V20.1633Z" fill="white"/>
<path d="M106.465 12.6112L90.6543 0.681641V21.0384C90.6543 22.5707 90.6543 25.3068 94.1438 27.7146L106.029 36.6891C106.792 37.3458 108.755 39.0969 108.973 42.8181V17.8645C108.973 17.8645 109.191 14.8001 106.465 12.6112ZM104.066 26.5107C104.066 27.9335 102.867 28.1524 102.104 27.4957L97.4151 23.884C96.1066 22.7896 95.6704 21.3668 95.6704 20.1629V10.86L102.649 16.1134C103.739 16.8795 104.066 17.8645 104.066 18.8495V26.5107Z" fill="white"/>
</g>
</g>
<defs>
<clipPath id="clip0_452_258">
<rect width="130" height="74" fill="white"/>
</clipPath>
</defs>
</svg>
