<svg width="91" height="62" viewBox="0 0 91 62" fill="none" xmlns="http://www.w3.org/2000/svg">
<g clip-path="url(#clip0_452_250)">
<path d="M0.132812 60.9274C2.04159 57.097 1.76921 53.1268 1.76921 49.1866C1.76921 45.9588 1.75192 42.7309 1.78218 39.5031C1.80812 36.7465 1.28499 34.0996 0.230089 31.5862C0.372761 31.4851 0.428965 31.4141 0.480846 31.4141C5.80726 31.4657 11.1358 31.4593 16.4622 31.612C18.4034 31.668 20.336 32.1457 21.9486 33.3443C25.7056 36.1375 25.4679 42.0337 21.4903 44.9022C20.7964 45.4014 20.0139 45.778 19.173 46.2687C19.3049 46.5764 19.4281 46.8992 19.5794 47.2069C21.0407 50.1657 22.4955 53.1311 23.9784 56.0792C24.9166 57.9427 25.978 59.7224 27.8284 61.0372C26.914 61.0372 25.9996 61.0372 25.0831 61.0372C23.211 61.0372 21.3369 61.0006 19.4648 61.0544C18.7039 61.0759 18.3062 60.8177 17.9841 60.1355C16.2093 56.3718 14.3243 52.6577 12.6231 48.8617C12.0394 47.5619 11.3044 47.024 9.93826 47.28C9.69615 47.3252 9.44755 47.3274 9.08006 47.3597C9.04548 51.9217 8.63259 56.4773 10.6775 60.9253H0.132812V60.9274ZM9.04115 39.2707C9.04115 40.7748 9.04115 42.2769 9.04115 43.7811C9.04115 46.6947 9.03683 46.656 11.994 46.3698C14.1557 46.1589 15.6148 45.1195 16.3433 43.086C16.5725 42.4469 16.8427 41.8035 16.9356 41.1407C17.7722 35.0895 15.8915 31.8724 10.0593 32.2253C10.0225 32.2275 9.98798 32.2296 9.95123 32.2253C9.24435 32.1436 9.01737 32.4599 9.02818 33.1528C9.06277 35.1928 9.04115 37.2328 9.03899 39.2728L9.04115 39.2707Z" fill="white"/>
<path d="M34.5969 27.9384H26.4191C26.404 27.7727 26.3542 27.6328 26.3888 27.5145C27.7096 22.8664 27.1434 18.1064 27.1931 13.3894C27.2147 11.3085 25.4745 10.2326 23.3085 10.7684C21.5792 11.1966 20.6929 12.2812 20.7318 14.0436C20.8139 17.7319 20.9046 21.4203 21.0646 25.1044C21.1035 26.0211 21.4191 26.9249 21.6266 27.9212H13.4468C13.4079 27.8179 13.3495 27.7426 13.3646 27.6909C14.5557 23.6927 14.2077 19.589 14.1947 15.509C14.1882 13.4518 13.5484 11.5775 12.1562 9.81939C15.0119 9.02318 17.6924 8.27647 20.5459 7.48242V11.2332C20.6345 11.2719 20.7209 11.3085 20.8095 11.3472C21.0149 11.0955 21.2181 10.8415 21.4277 10.5941C23.5635 8.0785 26.2938 7.2328 29.4757 7.88913C32.0719 8.4228 33.6609 10.3853 33.7084 13.0171C33.7538 15.4552 33.6219 17.8998 33.7537 20.3293C33.8769 22.6082 34.238 24.8763 34.4974 27.1487C34.5255 27.3897 34.558 27.6285 34.5969 27.9341V27.9384Z" fill="white"/>
<path d="M10.3456 27.9441C10.2678 27.9506 9.98895 27.9936 9.71226 27.9936C6.58861 27.9979 3.46712 27.9958 0.548828 27.9958C2.39492 18.8437 2.37114 9.80571 0.57693 0.681641H10.35C8.37417 9.74546 8.3893 18.8072 10.3456 27.9441Z" fill="white"/>
<path d="M73.0737 22.3116C72.3712 24.698 71.0979 26.4346 69.0789 27.4718C63.5947 30.2844 54.9025 28.1561 54.3794 19.2881C54.0897 14.371 56.2406 10.3405 60.363 8.54156C65.1792 6.43915 71.4287 7.87447 73.0521 14.5303C73.4434 16.1377 73.2985 16.2647 71.6924 16.2604C68.5601 16.2518 65.4278 16.2432 62.2977 16.2367C61.9107 16.2367 61.5216 16.2367 61.0115 16.2367C61.1304 18.8491 61.4222 21.3518 63.6271 22.8624C66.7162 24.9799 69.8852 24.3817 73.0781 22.3137L73.0737 22.3116ZM63.8973 15.4427C63.8973 15.4298 63.8973 15.4147 63.8973 15.4018C64.615 15.4018 65.3435 15.4728 66.0439 15.3674C66.34 15.3243 66.8199 14.8983 66.8048 14.668C66.7227 13.2176 66.5994 11.7586 66.3379 10.3298C66.1477 9.29042 65.51 8.49422 64.3426 8.3651C63.3504 8.25536 62.3733 8.89662 61.9388 10.1533C61.5216 11.3562 61.2493 12.6237 61.0461 13.8826C60.7931 15.4491 60.8515 15.4556 62.3885 15.4427C62.89 15.4384 63.3937 15.4427 63.8952 15.4427H63.8973Z" fill="white"/>
<path d="M46.3002 49.2438H34.305C33.7386 51.3161 35.001 54.7118 36.7369 55.9406C39.2228 57.703 42.8501 57.4856 46.2548 55.2369C46.0776 55.7598 45.9868 56.1041 45.8463 56.4269C44.3093 59.9625 40.6949 61.9573 36.7412 61.6539C32.8782 61.3569 29.9319 59.687 28.4208 56.1149C26.7801 52.235 27.1152 48.4068 29.5017 44.8367C32.6037 40.1972 39.1212 39.6076 42.6923 42.2157C44.9859 43.8899 46.2462 46.186 46.3002 49.246V49.2438ZM40.1675 48.439C39.9146 46.5862 39.7546 44.9357 39.4412 43.3153C39.2401 42.2803 38.6089 41.4496 37.4286 41.3765C36.2678 41.3055 35.4485 42.0134 35.1372 43.0012C34.6595 44.5204 34.4066 46.1107 34.0888 47.6751C33.9829 48.198 34.2271 48.4541 34.8065 48.4455C36.4559 48.4218 38.1031 48.4369 40.1675 48.4369V48.439Z" fill="white"/>
<path d="M74.459 9.82605C77.3578 9.02123 80.0448 8.27452 82.9047 7.48047V12.3954C85.0578 10.1445 86.7136 7.6806 90.1356 7.68921C89.9086 9.91858 89.6903 12.0382 89.4655 14.2353C88.5122 13.6285 87.6929 13.0087 86.7893 12.5568C85.3042 11.8123 84.366 11.9112 83.5251 12.7914C83.3219 13.0044 83.1187 13.3423 83.1274 13.6177C83.2571 17.7666 83.4106 21.9176 83.5965 26.0643C83.6224 26.6604 83.8494 27.2479 84.0029 27.9279H75.5744C76.8152 24.2029 76.465 20.422 76.532 16.667C76.5753 14.2418 76.251 11.9392 74.459 9.82605Z" fill="white"/>
<path d="M48.0721 20.6436C49.0556 17.8698 50.1949 15.139 50.945 12.3049C51.2562 11.13 50.7331 9.73772 50.584 8.39062H54.8771C54.8771 8.49821 54.9052 8.59075 54.8728 8.62734C52.9597 10.79 51.8248 13.3787 50.7374 16.0019C49.1594 19.8086 47.5381 23.5981 45.945 27.4006C45.7266 27.9213 45.5256 28.3151 44.8187 28.3259C44.0708 28.3366 43.8395 27.9428 43.606 27.3683C41.8053 22.916 40.0219 18.4572 38.1585 14.0308C37.3587 12.1306 36.3795 10.3058 35.4629 8.40784H45.0954C44.1205 10.9062 44.7387 13.2238 45.6726 15.5242C46.3535 17.2005 46.9869 18.8962 47.6397 20.5833C47.7824 20.6027 47.9272 20.6242 48.0699 20.6436H48.0721Z" fill="white"/>
</g>
<defs>
<clipPath id="clip0_452_250">
<rect width="91" height="62" fill="white"/>
</clipPath>
</defs>
</svg>
