<svg width="93" height="38" viewBox="0 0 93 38" fill="none" xmlns="http://www.w3.org/2000/svg">
<path d="M1.09668 21.0582C4.51817 21.149 8.24388 20.188 8.24388 18.5271C8.24388 17.8234 7.63921 17.3997 4.7961 15.7615C2.56143 14.4979 0 12.7197 0 9.74595C0 5.76204 5.23928 1.4528 14.1667 0.677223L15.1169 6.58303C10.7152 6.58303 8.50303 7.33213 8.50303 8.78116C8.50303 9.62865 9.62224 10.1659 11.9057 11.2858C13.7911 12.2241 16.8183 13.8169 16.8183 17.0024C16.8183 20.8879 12.7621 25.8517 2.05064 27.0926L1.09668 21.0544V21.0582ZM83.2388 27.0964C90.3184 26.2754 93 22.9953 93 20.4264C93 18.319 90.9944 17.2673 89.7513 16.6506C88.2415 15.909 87.5016 15.5496 87.5016 14.9897C87.5016 14.0325 88.9663 13.5369 91.877 13.5369L91.2498 9.63615C85.3495 10.147 81.8905 12.9959 81.8905 15.6291C81.8905 17.5926 83.5843 18.773 85.0603 19.6092C86.9382 20.6912 87.3401 20.9712 87.3401 21.4365C87.3401 22.5337 84.8763 23.1693 82.6116 23.105L83.2425 27.1002L83.2388 27.0964ZM16.9197 23.8427C17.9675 22.0381 27.7287 5.41019 31.154 0H31.5033C35.7435 6.42035 45.2268 21.4063 46.6953 23.419L39.7284 27.5693C38.7031 25.8366 36.9078 22.6699 36.5623 22.0683L25.9372 22.6737C25.6593 23.1693 24.4011 25.9312 23.6087 27.5958L16.9197 23.8503V23.8427ZM34.1586 17.1197C33.1558 15.0805 31.83 12.5759 31.1991 11.1231C30.3352 12.8105 29.1033 15.4323 28.1945 17.4224L34.1586 17.1197ZM59.2583 26.4646C59.1869 25.7647 59.0743 22.6018 59.0743 22.11V19.8135C59.0743 15.7615 60.9146 12.4359 63.0366 10.7032C64.6441 9.32218 66.8111 8.35742 68.3472 8.03206L66.1351 0.749103C63.4309 1.52469 61.1963 2.86021 59.5174 4.49462C57.8236 6.13281 56.3964 8.00557 55.6302 10.374H55.3486C54.511 7.6121 53.2303 5.76204 51.9271 4.44544C50.1281 2.64456 47.6605 1.5209 45.3094 0.745323L42.5827 8.02827C43.7245 8.35364 45.1705 8.91736 46.5676 9.87835C49.1779 11.6112 51.1571 15.2924 51.1571 19.8816V21.4252C51.1571 21.8943 51.0182 25.6398 50.9731 26.4608H59.2658L59.2583 26.4646ZM80.3356 24.066L80.1666 24.2249C79.0061 25.3296 76.3395 27.0359 74.0447 27.3802C73.4851 27.4672 72.9292 27.505 72.4034 27.505C68.2045 27.505 65.1886 24.7432 64.5314 20.2902C64.1596 17.8007 64.6478 15.5837 65.9398 13.885C67.1191 12.3338 68.9031 11.3123 70.9687 10.9983C71.4908 10.9226 71.9941 10.881 72.471 10.881C76.7902 10.881 79.3028 14.0136 79.5469 19.6962L79.5582 19.9648L69.9472 21.4025C70.4617 22.8553 71.4983 23.5363 73.1884 23.5363C73.5752 23.5363 73.9884 23.5022 74.4578 23.4304C76.0841 23.1882 78.6417 21.7241 78.6643 21.7051L78.9272 21.5576L80.3394 24.0622L80.3356 24.066ZM74.5968 16.9495C74.2813 15.822 73.5227 15.2507 72.3509 15.2507C72.1631 15.2507 71.964 15.2659 71.765 15.2961C70.503 15.4853 69.6693 16.3782 69.4815 17.7175L74.6006 16.9495H74.5968Z" fill="white"/>
<path d="M3.48097 31.4923C3.48848 31.409 3.57486 31.3447 3.64622 31.3447H3.79269C3.83776 31.3447 3.92039 31.3826 3.95044 31.4355L6.07995 35.427H6.09873L8.22824 31.4355C8.25453 31.3788 8.33716 31.3447 8.38598 31.3447H8.53246C8.60757 31.3447 8.6902 31.409 8.69771 31.4923L9.7343 37.7045C9.75308 37.8256 9.67045 37.9088 9.56153 37.9088H8.47988C8.39725 37.9088 8.31462 37.8332 8.30711 37.7613L7.89398 34.9049H7.8752L6.33534 37.9013C6.30905 37.958 6.22642 38.0034 6.1776 38.0034H6.01235C5.95601 38.0034 5.88465 37.958 5.8546 37.9013L4.30348 34.9049H4.2847L3.87908 37.7613C3.87157 37.837 3.79645 37.9088 3.70631 37.9088H2.62465C2.51574 37.9088 2.43311 37.8256 2.45189 37.7045L3.48848 31.4923H3.48097Z" fill="white"/>
<path d="M14.9102 31.6135C14.9102 31.5227 14.9853 31.4395 15.0829 31.4395H18.88C18.9814 31.4395 19.0528 31.5227 19.0528 31.6135V32.6199C19.0528 32.7107 18.9777 32.7939 18.88 32.7939H16.3374V33.9403H18.4293C18.5194 33.9403 18.6021 34.0235 18.6021 34.1143V35.1207C18.6021 35.2229 18.5194 35.2947 18.4293 35.2947H16.3374V36.5432H18.88C18.9814 36.5432 19.0528 36.6265 19.0528 36.7173V37.7237C19.0528 37.8145 18.9777 37.8977 18.88 37.8977H15.0829C14.9815 37.8977 14.9102 37.8145 14.9102 37.7237V31.606V31.6135Z" fill="white"/>
<path d="M24.2734 31.5112C24.2734 31.4204 24.3561 31.3447 24.4462 31.3447H24.5852C24.6753 31.3447 24.7429 31.409 24.8143 31.4847L28.3372 34.8935H28.3447V31.6133C28.3447 31.5225 28.4198 31.4393 28.5175 31.4393H29.6179C29.708 31.4393 29.7907 31.5225 29.7907 31.6133V37.8332C29.7907 37.9429 29.708 37.9996 29.6179 37.9996H29.5278C29.4376 37.9996 29.37 37.9732 29.2987 37.8975L25.7307 34.2844H25.7232V37.731C25.7232 37.8218 25.6481 37.9051 25.5504 37.9051H24.4575C24.3636 37.9051 24.2847 37.8218 24.2847 37.731L24.2772 31.5112H24.2734Z" fill="white"/>
<path d="M36.3175 32.7978H35.0067C34.9053 32.7978 34.834 32.7146 34.834 32.6238V31.6174C34.834 31.5266 34.9091 31.4434 35.0067 31.4434H39.0817C39.1831 31.4434 39.2545 31.5266 39.2545 31.6174V32.6238C39.2545 32.7146 39.1794 32.7978 39.0817 32.7978H37.771V37.7351C37.771 37.8259 37.6884 37.9092 37.5982 37.9092H36.4978C36.4076 37.9092 36.325 37.8259 36.325 37.7351V32.7978H36.3175Z" fill="white"/>
<path d="M47.079 31.3447C48.9155 31.3447 50.3803 32.8316 50.3803 34.6816C50.3803 36.5317 48.9118 37.9996 47.079 37.9996C45.2462 37.9996 43.7852 36.5317 43.7852 34.6816C43.7852 32.8316 45.2424 31.3447 47.079 31.3447ZM47.079 36.5203C48.0893 36.5203 48.9155 35.688 48.9155 34.6816C48.9155 33.6753 48.0893 32.824 47.079 32.824C46.0687 32.824 45.2537 33.6639 45.2537 34.6816C45.2537 35.6994 46.0799 36.5203 47.079 36.5203Z" fill="white"/>
<path d="M55.535 31.6135C55.535 31.5227 55.6102 31.4395 55.7079 31.4395H58.4496C59.6138 31.4395 60.4514 32.3362 60.4514 33.4371C60.4514 34.2884 59.9481 34.9732 59.0918 35.2947L60.3499 37.6442C60.4137 37.7653 60.35 37.9128 60.1922 37.9128H58.9715C58.8964 37.9128 58.8439 37.8674 58.8251 37.8296L57.6045 35.3818H56.9697V37.7388C56.9697 37.8296 56.8872 37.9128 56.797 37.9128H55.704C55.6026 37.9128 55.5312 37.8296 55.5312 37.7388V31.6211L55.535 31.6135ZM58.333 34.2013C58.7086 34.2013 59.0317 33.8949 59.0317 33.4598C59.0317 33.0247 58.7124 32.7561 58.333 32.7561H56.9734V34.1976H58.333V34.2013Z" fill="white"/>
<path d="M65.6797 31.6135C65.6797 31.5227 65.7623 31.4395 65.8524 31.4395H66.9529C67.0468 31.4395 67.1256 31.5227 67.1256 31.6135V37.7312C67.1256 37.822 67.043 37.9053 66.9529 37.9053H65.8524C65.7585 37.9053 65.6797 37.822 65.6797 37.7312V31.6135Z" fill="white"/>
<path d="M72.6426 31.5112C72.6426 31.4204 72.7252 31.3447 72.8153 31.3447H72.9543C73.0444 31.3447 73.112 31.409 73.1834 31.4847L76.7063 34.8935H76.7138V31.6133C76.7138 31.5225 76.7889 31.4393 76.8866 31.4393H77.987C78.0771 31.4393 78.1598 31.5225 78.1598 31.6133V37.8332C78.1598 37.9429 78.0771 37.9996 77.987 37.9996H77.8969C77.8067 37.9996 77.7391 37.9732 77.6678 37.8975L74.0998 34.2844H74.0923V37.731C74.0923 37.8218 74.0172 37.9051 73.9195 37.9051H72.8266C72.7327 37.9051 72.6538 37.8218 72.6538 37.731L72.6463 31.5112H72.6426Z" fill="white"/>
<path d="M86.612 31.3564C87.382 31.3564 88.227 31.678 88.8505 32.2266C88.9331 32.2909 88.9406 32.4007 88.8692 32.4763L88.1444 33.2519C88.0693 33.3162 87.9716 33.3162 87.8965 33.2595C87.5472 32.9379 87.1453 32.8168 86.6947 32.8168C85.6956 32.8168 84.8881 33.6681 84.8881 34.6858C84.8881 35.7035 85.7031 36.5245 86.7059 36.5245C86.9726 36.5245 87.2468 36.4867 87.5209 36.377V35.8397H86.9425C86.8411 35.8397 86.7698 35.7641 86.7698 35.6733V34.7577C86.7698 34.6555 86.8449 34.5837 86.9425 34.5837H88.7866C88.8767 34.5837 88.9519 34.6669 88.9519 34.7577L88.9594 37.2433C88.9594 37.3266 88.9218 37.3644 88.8843 37.3909C88.8843 37.3909 87.9378 37.9924 86.6083 37.9924C84.783 37.9924 83.3145 36.5321 83.3145 34.682C83.3145 32.832 84.783 31.3564 86.6083 31.3564H86.612Z" fill="white"/>
</svg>
