<svg width="130" height="25" viewBox="0 0 130 25" fill="none" xmlns="http://www.w3.org/2000/svg">
<g clip-path="url(#clip0_203_3474)">
<path d="M9.62636 15.0699H7.4712L4.80765 18.6663L2.08884 15.0699H0V24.5524H2.21594V18.6663L4.80765 21.9937L7.4712 18.6663V24.5524H9.62636V15.0699Z" fill="white"/>
<path fill-rule="evenodd" clip-rule="evenodd" d="M16.8928 22.691L17.5504 24.5524H19.9984L16.3788 15.0699H14.1021L10.582 24.5524H13.019L13.6324 22.691H16.8928ZM16.2186 20.7693H14.2734L15.246 17.6725L16.2186 20.7693Z" fill="white"/>
<path d="M27.3433 15.0699H24.7682L22.9391 18.6059L21.0934 15.0699H18.5293L21.8228 20.6814V24.5524H24.094V20.6814L27.3433 15.0699Z" fill="white"/>
<path fill-rule="evenodd" clip-rule="evenodd" d="M37.2066 19.8303C37.2066 17.041 34.9741 14.8832 32.1006 14.8832C29.227 14.8832 27.0332 17.0191 27.0332 19.7864C27.0332 22.5537 29.2491 24.75 32.1393 24.75C35.0294 24.75 37.2066 22.6141 37.2066 19.8248V19.8303ZM34.9907 19.8029C34.9907 21.4556 33.7308 22.7514 32.1448 22.7514C30.5588 22.7514 29.2381 21.4281 29.2381 19.7754C29.2381 18.1227 30.498 16.8928 32.1116 16.8928C33.7252 16.8928 34.9852 18.1447 34.9852 19.8084L34.9907 19.8029Z" fill="white"/>
<path fill-rule="evenodd" clip-rule="evenodd" d="M43.4679 20.4673C44.5289 19.8578 45.0428 19.0287 45.0428 17.9525C45.0428 17.0685 44.6394 16.2559 43.9707 15.7617C43.186 15.2072 42.6224 15.0699 41.053 15.0699H38.6934V24.5524H40.9093V20.9724H41.3348L43.7386 24.5524H46.2475L43.4679 20.4728V20.4673ZM40.9093 16.8434H41.3348C41.9371 16.8434 42.125 16.8708 42.3848 17.0411C42.6997 17.2277 42.871 17.5572 42.871 17.936C42.871 18.7212 42.3571 19.0781 41.2132 19.0781H40.9148V16.8434H40.9093Z" fill="white"/>
<path fill-rule="evenodd" clip-rule="evenodd" d="M59.9137 19.8303C59.9137 17.041 57.6811 14.8832 54.8076 14.8832C51.9341 14.8832 49.7402 17.0191 49.7402 19.7864C49.7402 22.5537 51.9562 24.75 54.8518 24.75C57.7475 24.75 59.9192 22.6141 59.9192 19.8248L59.9137 19.8303ZM57.6922 19.8029C57.6922 21.4556 56.4323 22.7514 54.8408 22.7514C53.2493 22.7514 51.9341 21.4281 51.9341 19.7754C51.9341 18.1227 53.194 16.8928 54.8131 16.8928C56.4323 16.8928 57.6922 18.1447 57.6922 19.8084V19.8029Z" fill="white"/>
<path d="M67.4062 15.0699H61.3828V24.5524H63.643V20.4673H66.6381V18.5785H63.643V16.9587H67.4062V15.0699Z" fill="white"/>
<path d="M74.21 15.0699H71.9609V24.5524H77.8738V22.5483H74.21V15.0699Z" fill="white"/>
<path fill-rule="evenodd" clip-rule="evenodd" d="M88.2223 19.8303C88.2223 17.041 85.9897 14.8832 83.1162 14.8832C80.2427 14.8832 78.0488 17.0191 78.0488 19.7864C78.0488 22.5537 80.2648 24.75 83.1549 24.75C86.045 24.75 88.2223 22.6141 88.2223 19.8248V19.8303ZM86.0008 19.8029C86.0008 21.4556 84.7409 22.7514 83.1549 22.7514C81.5689 22.7514 80.2482 21.4281 80.2482 19.7754C80.2482 18.1227 81.5081 16.8928 83.1217 16.8928C84.7353 16.8928 85.9953 18.1447 85.9953 19.8084L86.0008 19.8029Z" fill="white"/>
<path d="M98.3681 15.0699H96.1246V20.8681L91.643 15.0699H89.6094V24.5524H91.8529V18.8255L96.3346 24.5524H98.3681V15.0699Z" fill="white"/>
<path fill-rule="evenodd" clip-rule="evenodd" d="M100.22 15.0699V24.5524C100.883 24.5634 101.525 24.5634 102.166 24.5634C103.895 24.5634 104.453 24.5359 105.127 24.3767C105.901 24.2229 106.62 23.8221 107.216 23.2401C108.117 22.3671 108.631 21.1152 108.631 19.7645C108.631 18.2325 107.94 16.8489 106.785 15.9978C105.796 15.284 104.929 15.0644 103.066 15.0644H100.215L100.22 15.0699ZM102.469 16.9148C102.685 16.8983 102.829 16.8983 102.928 16.8983C104.26 16.8983 104.989 17.1124 105.603 17.667C106.161 18.1612 106.459 18.8914 106.459 19.7864C106.459 21.236 105.675 22.2902 104.381 22.5757C104 22.6581 103.785 22.6746 103.099 22.6746H102.469V16.9148Z" fill="white"/>
<path fill-rule="evenodd" clip-rule="evenodd" d="M119.853 19.8303C119.853 17.041 117.626 14.8832 114.747 14.8832C111.868 14.8832 109.686 17.0191 109.686 19.7864C109.686 22.5537 111.901 24.75 114.792 24.75C117.682 24.75 119.853 22.6141 119.853 19.8248V19.8303ZM117.638 19.8029C117.638 21.4556 116.378 22.7514 114.792 22.7514C113.206 22.7514 111.885 21.4281 111.885 19.7754C111.885 18.1227 113.139 16.8928 114.758 16.8928C116.378 16.8928 117.638 18.1447 117.638 19.8084V19.8029Z" fill="white"/>
<path d="M130.001 15.0699H127.752V20.8681L123.276 15.0699H121.242V24.5524H123.491V18.8255L127.973 24.5524H130.001V15.0699Z" fill="white"/>
<path d="M33.2717 4.23113C33.6143 4.73078 34.1448 4.9614 34.7361 4.9614C35.1726 4.9614 35.7584 4.80766 35.7584 4.34643C35.7584 3.97306 35.4047 3.86325 34.7637 3.715L34.2277 3.5942C33.4485 3.4185 32.7743 3.13298 32.7743 2.24897C32.7743 1.23868 33.7414 0.755493 34.6421 0.755493C35.4711 0.755493 36.1563 1.05748 36.6591 1.72186L35.9076 2.2929C35.681 1.85364 35.2334 1.59558 34.6366 1.59558C34.1172 1.59558 33.7248 1.79324 33.7248 2.12818C33.7248 2.52351 34.178 2.61685 34.7195 2.74314L35.3108 2.86943C36.0347 3.02866 36.7089 3.31967 36.7089 4.23113C36.7089 5.40065 35.5982 5.80697 34.5924 5.80697C33.7911 5.80697 32.9622 5.46654 32.498 4.79667L33.2717 4.24211V4.23113Z" fill="white"/>
<path d="M42.5951 4.19269C42.5951 5.17004 41.8159 5.79049 40.6444 5.79049C39.4729 5.79049 38.6992 5.17004 38.6992 4.19269V0.876282H39.611V3.96207C39.611 4.54409 39.8652 4.92295 40.6444 4.92295C41.4236 4.92295 41.6833 4.54958 41.6833 3.96207V0.876282H42.5951V4.19818V4.19269Z" fill="white"/>
<path d="M44.832 0.876282H46.7551C47.8935 0.876282 48.4405 1.56262 48.4405 2.49056C48.4405 3.41849 47.7719 4.05542 46.8159 4.05542H45.7438V5.67518H44.832V0.876282ZM45.7438 3.30319H46.6501C47.2138 3.30319 47.4956 2.96276 47.4956 2.49056C47.4956 1.82069 47.1364 1.62851 46.6114 1.62851H45.7438V3.30319Z" fill="white"/>
<path d="M50.3297 0.876282H52.2473C53.3801 0.876282 53.9382 1.56262 53.9382 2.49056C53.9382 3.41849 53.2641 4.05542 52.3081 4.05542H51.236V5.67518H50.3242V0.876282H50.3297ZM51.2415 3.30319H52.1423C52.717 3.30319 52.9933 2.96276 52.9933 2.49056C52.9933 1.82069 52.6286 1.62851 52.1091 1.62851H51.2415V3.30319Z" fill="white"/>
<path d="M60.2832 3.27574C60.2832 4.63195 59.4156 5.79598 57.9678 5.79598C56.5199 5.79598 55.6523 4.63195 55.6523 3.27574C55.6523 1.91953 56.5199 0.75 57.9678 0.75C59.4156 0.75 60.2832 1.91404 60.2832 3.27574ZM56.6028 3.27574C56.6028 4.11033 57.0007 4.96139 57.9678 4.96139C58.9348 4.96139 59.3327 4.11033 59.3327 3.27574C59.3327 2.44115 58.9293 1.58459 57.9678 1.58459C57.0062 1.58459 56.6028 2.43566 56.6028 3.27574Z" fill="white"/>
<path d="M62.3438 0.876282H64.3608C65.3886 0.876282 65.9909 1.48026 65.9909 2.32584C65.9909 3.40202 65.2615 3.65459 65.0349 3.74244L66.1125 5.68067H65.057L64.1231 3.91266H63.2555V5.68067H62.3438V0.876282ZM63.2555 3.1165H64.2447C64.7089 3.1165 65.0349 2.84196 65.0349 2.39172C65.0349 1.94148 64.7365 1.67244 64.1066 1.67244H63.2555V3.1165Z" fill="white"/>
<path d="M68.9028 1.70538H67.582V0.876282H71.1408V1.71087H69.8145V5.67518H68.9028V1.70538Z" fill="white"/>
<path d="M72.9824 0.876282H76.4086V1.71087H73.8942V2.80353H76.2041V3.59969H73.8942V4.84608H76.5799V5.68067H72.9824V0.876282Z" fill="white"/>
<path d="M78.4863 0.876282H80.1828C81.8517 0.876282 82.559 1.89756 82.559 3.27573C82.559 4.84059 81.7909 5.67518 80.3541 5.67518H78.4863V0.876282ZM79.3981 4.84059H80.227C81.1222 4.84059 81.6085 4.51664 81.6085 3.27573C81.6085 2.33133 81.1996 1.70538 80.2049 1.70538H79.3981V4.84059Z" fill="white"/>
<path d="M87.8633 0.876282H90.1345C90.9247 0.876282 91.5657 1.27161 91.5657 2.06777C91.5657 2.59488 91.2784 2.9408 90.7479 3.03963V3.05061C91.411 3.1165 91.7868 3.66558 91.7868 4.2421C91.7868 5.44457 90.9247 5.68067 89.9245 5.68067H87.8688V0.876282H87.8633ZM88.7696 2.80353H89.8527C90.2561 2.80353 90.6208 2.6443 90.6208 2.18857C90.6208 1.82618 90.3832 1.58459 89.8527 1.58459H88.7696V2.80353ZM88.7696 4.87903H89.9521C90.5047 4.87903 90.8363 4.70881 90.8363 4.21465C90.8363 3.67656 90.4937 3.47889 89.9411 3.47889H88.7696V4.87903Z" fill="white"/>
<path d="M94.9811 3.79735L93.373 0.870789H94.3843L95.4398 2.85294L96.4897 0.870789H97.501L95.8929 3.79735V5.66969H94.9811V3.79735Z" fill="white"/>
</g>
<defs>
<clipPath id="clip0_203_3474">
<rect width="130" height="24" fill="white" transform="translate(0 0.75)"/>
</clipPath>
</defs>
</svg>
