<svg width="107" height="40" viewBox="0 0 107 40" fill="none" xmlns="http://www.w3.org/2000/svg">
<path d="M15.8922 0.797819C15.5709 1.47572 15.2713 2.16583 14.9221 2.82948C13.0693 6.34111 11.9028 10.0543 11.8671 14.0748C11.8274 18.5026 13.7061 21.0716 17.8602 22.234C22.1353 23.4311 26.4699 23.2356 30.7193 22.2524C34.9607 21.2691 39.1307 19.9459 43.3225 18.7407C47.4547 17.5519 51.5751 16.3223 55.7035 15.1171C62.0219 13.2707 68.3245 11.3673 74.6648 9.60235C84.443 6.88058 94.247 4.25652 104.041 1.58972C104.773 1.39022 105.501 1.17646 106.231 0.96882C106.289 1.093 106.344 1.21718 106.402 1.34136C106.088 1.5714 105.801 1.8625 105.456 2.02129C102.418 3.43409 99.3851 4.85706 96.3241 6.21286C85.9904 10.7912 75.6567 15.3757 65.2992 19.897C57.8876 23.1338 50.4384 26.2811 43.0031 29.4589C36.512 32.2335 30.0428 35.0632 23.5141 37.7422C19.0901 39.5581 14.452 40.2136 9.71066 39.497C2.30507 38.3835 -0.634943 32.5206 0.112956 26.049C0.658505 21.3261 2.66216 17.1834 5.38991 13.3868C7.17137 10.9052 8.90324 8.38295 10.7601 5.9645C12.1269 4.18527 13.6585 2.53633 15.1285 0.840569C15.2415 0.710282 15.4459 0.665496 15.6085 0.582031C15.7038 0.653282 15.799 0.724532 15.8942 0.797819H15.8922Z" fill="white"/>
</svg>
