<svg width="57" height="22" viewBox="0 0 57 22" fill="none" xmlns="http://www.w3.org/2000/svg">
<path d="M8.51369 0.3656C8.34153 0.72876 8.18105 1.09846 7.99401 1.45399C7.00139 3.33522 6.37649 5.32442 6.35736 7.47829C6.3361 9.85028 7.34253 11.2266 9.56795 11.8493C11.8582 12.4905 14.1803 12.3859 16.4568 11.8591C18.7289 11.3324 20.9629 10.6235 23.2085 9.97788C25.4222 9.34098 27.6295 8.68228 29.8411 8.03666C33.226 7.04752 36.6024 6.02784 39.999 5.08231C45.2373 3.62422 50.4895 2.21848 55.7363 0.789832C56.1285 0.682956 56.5185 0.568446 56.9096 0.457208C56.9404 0.523733 56.9702 0.590258 57.001 0.656782C56.8331 0.780017 56.679 0.935968 56.4941 1.02103C54.867 1.77789 53.242 2.5402 51.6022 3.26651C46.0663 5.7192 40.5304 8.17517 34.9817 10.5973C31.0112 12.3313 27.0206 14.0173 23.0374 15.7197C19.56 17.2062 16.0944 18.7221 12.5968 20.1572C10.2269 21.13 7.74213 21.4812 5.20214 21.0973C1.23486 20.5008 -0.340148 17.3599 0.060512 13.893C0.352771 11.3629 1.42616 9.14359 2.88745 7.10968C3.84181 5.78028 4.7696 4.42906 5.76434 3.13347C6.49658 2.18031 7.31703 1.29695 8.10453 0.388502C8.16511 0.318706 8.27457 0.294713 8.36172 0.25C8.41273 0.28817 8.46375 0.32634 8.51476 0.3656H8.51369Z" fill="white"/>
</svg>
