<svg width="38" height="32" viewBox="0 0 38 32" fill="none" xmlns="http://www.w3.org/2000/svg">
<g clip-path="url(#clip0_49_3871)">
<path d="M37.2002 13.8931C37.2014 13.5212 37.1477 13.4995 36.9889 13.3416C36.83 13.1837 36.589 13.2238 36.4118 13.4457C36.2416 13.6574 36.1845 13.7455 36.1456 13.9388C36.1079 14.1322 36.157 14.2054 36.0942 14.3416C36.0314 14.4777 35.9936 14.8084 35.6109 15.1173C35.227 15.4262 34.8693 15.7751 34.5882 15.8243C34.3072 15.8747 32.9417 15.3827 32.3213 15.0052C32.1362 14.893 31.8494 14.6894 31.5249 14.456L31.4849 14.4239C28.6604 12.6425 28.4741 12.4126 27.9257 12.3462C27.1373 12.2501 18.65 15.0338 18.65 15.0338C18.65 15.0338 18.1564 15.4136 18.5426 14.1276C19.1527 12.0968 18.9928 9.07974 18.8796 8.68501C18.7642 8.288 19.339 7.84866 19.7217 7.15417C20.1045 6.4574 20.9123 6.4185 20.9123 6.4185C20.9123 6.4185 22.0195 5.87619 23.4958 5.057C24.1208 4.71261 24.5961 3.75155 25.2314 2.993C25.2314 2.993 25.2314 2.99071 25.2337 2.99071C25.2451 2.97126 25.5193 2.70353 25.7456 2.64404C25.9798 2.58226 25.885 2.67379 26.2403 2.4278C26.6242 2.16122 26.8002 1.93239 27.0664 1.71043C27.3327 1.48847 27.4983 1.2505 27.4869 1.15096C27.4766 1.05142 27.3509 1.06744 27.2401 1.13608C27.1396 1.19787 26.9967 1.3466 26.8173 1.41983C26.638 1.49419 26.7602 1.12121 26.8779 0.920988C26.9967 0.720766 27.3144 0.203622 27.2481 0.0503099C27.199 -0.0629584 27.0356 0.0743365 27.0356 0.0743365C27.0356 0.0743365 27.047 -0.00918454 26.9579 -3.1552e-05C26.8859 0.00797732 26.8505 0.0560305 26.8505 0.0560305C26.8505 0.0560305 26.8368 -3.15519e-05 26.7499 0.00912144C26.6322 0.0217068 26.5785 0.199046 26.5031 0.312314C26.4494 0.393547 26.4426 0.419862 26.3477 0.495374C26.326 0.512536 26.3786 0.371809 26.3363 0.347782C26.1889 0.261973 26.0312 0.673857 25.9547 0.781405C25.8781 0.888953 25.276 1.67954 25.1286 1.75277C25.0223 1.8054 24.8166 2.01248 24.7058 2.12804C24.2602 2.51246 23.8523 2.88545 23.3781 3.02389C22.2263 3.35568 22.0641 3.66574 21.0894 4.33734C20.1137 5.01123 19.5801 4.77554 19.5801 4.77554C19.5801 4.77554 19.9377 3.69091 19.956 3.10626C19.972 2.52162 20.0085 1.7459 18.5243 0.927853C17.0412 0.109804 15.0268 0.74937 14.0807 2.46784C13.1369 4.18517 14.6268 5.97687 14.6268 5.97687C14.6268 5.97687 12.7061 6.06611 12.2011 6.21256C11.6983 6.35786 11.3727 6.84297 11.3727 6.84297C11.3727 6.84297 9.56165 7.05349 8.28764 6.95739C7.01249 6.8567 6.56801 6.67364 5.92244 6.86128C5.27458 7.04892 4.89752 7.38186 4.72955 7.68276C4.63586 7.85552 3.88288 8.6976 4.05884 9.01338C4.39477 9.61976 5.21973 8.56717 5.80703 8.47564C7.08447 8.27313 5.62422 9.44586 5.94186 9.61976C6.36577 9.85316 6.41376 9.21589 6.63543 9.03283C7.11532 8.64154 7.46839 7.95621 8.13682 8.32576C9.24858 8.93901 11.9131 9.25936 11.9131 9.25936C11.9131 9.25936 12.0183 9.61862 12.2262 10.3383C12.4342 11.0591 11.8926 14.5715 12.3496 16.1561C12.8067 17.7396 12.5404 17.8952 12.6273 19.275C12.7141 20.656 12.8112 21.5575 13.4785 22.228C14.0624 22.8104 13.6042 25.6238 13.6042 25.6238C13.6042 25.6238 13.45 27.0516 13.0729 27.5482C12.6467 27.372 11.9611 27.1031 10.7431 26.9086C9.12632 26.65 8.55044 26.8514 7.87059 26.9704C7.19073 27.0894 5.31914 27.4155 4.46675 27.1249C3.61436 26.8331 3.1299 26.4338 2.75169 26.4441C2.37463 26.4555 2.09355 27.1249 1.87874 27.7187C1.66279 28.3125 1.45826 28.6259 1.01607 29.1122C0.573879 29.5984 0.379635 29.9325 0.401345 30.2678C0.423054 30.6018 0.405915 30.6877 0.362496 30.7735C0.319077 30.8593 0.311078 30.984 0.412771 31.0984C0.514463 31.2128 0.520176 31.3146 0.607014 31.4119C0.693853 31.5091 0.736129 31.6281 0.812684 31.7677C0.888096 31.9084 1.03892 32.0492 1.14633 31.9839C1.25373 31.9187 1.33029 32.0057 1.4594 31.476C1.58852 30.9474 1.93358 30.5584 2.45119 30.1797C2.96879 29.8021 3.65893 29.3273 4.78097 29.2289C5.90187 29.1316 7.05591 29.1751 8.04883 29.4669C9.04062 29.7586 9.95014 30.1328 11.2013 30.3627C12.5153 30.6041 13.875 30.9245 14.4143 31.0652C14.9536 31.2059 15.2861 31.3043 15.9009 30.7105C15.942 30.6705 15.9671 30.6202 15.9808 30.5641C16.0003 30.5549 16.0185 30.5481 16.038 30.5389C16.9898 30.0733 18.4809 21.5987 18.9162 20.8093C19.3504 20.021 19.067 19.9844 19.6418 19.8185C20.2188 19.6526 24.3767 17.7385 26.1535 15.9605H26.1512C26.9259 15.1848 27.3315 15.6802 28.0788 16.0921C28.0788 16.0944 28.0776 16.1024 28.0776 16.1024C28.0776 16.1024 28.3964 16.298 28.8626 16.4948C28.9712 16.544 29.0831 16.5921 29.2043 16.6378L29.2145 16.6298C29.5436 16.7454 29.9127 16.8472 30.2932 16.8827C31.4301 16.9902 32.928 17.7968 33.8215 18.4593C34.7151 19.1206 35.3435 19.0771 35.7388 18.4753C36.133 17.8735 35.9228 17.1275 36.293 16.4593C36.6632 15.7912 37.166 15.6047 37.2951 14.9228C37.4242 14.242 37.2002 14.266 37.2014 13.8954L37.2002 13.8931Z" fill="#1D1D1B"/>
</g>
<defs>
<clipPath id="clip0_49_3871">
<rect width="37" height="32" fill="white" transform="translate(0.333984)"/>
</clipPath>
</defs>
</svg>
