<svg width="99" height="86" viewBox="0 0 99 86" fill="none" xmlns="http://www.w3.org/2000/svg">
<g clip-path="url(#clip0_18_650)">
<path d="M98.6465 37.3972C98.6465 36.4151 98.5055 36.345 98.0822 35.9416C97.659 35.5383 97.0594 35.661 96.548 36.2222C96.0366 36.7834 95.8427 37.327 95.7368 37.8356C95.631 38.3441 95.7545 38.3967 95.5958 38.765C95.4194 39.1333 95.4371 39.8523 94.4143 40.659C93.3915 41.4657 92.4392 42.4126 91.6809 42.5354C90.9226 42.6757 87.2723 41.3604 85.6147 40.3608C85.1209 40.0627 84.345 39.5191 83.4809 38.9053L83.3751 38.8176C75.8275 34.0827 75.3161 33.469 73.8525 33.2936C71.7363 33.0305 49.0407 40.431 49.0407 40.431C49.0407 40.431 47.7181 41.4481 48.7586 38.0285C50.3986 32.6272 49.9577 24.613 49.6579 23.5608C49.3582 22.5086 50.8924 21.3336 51.9152 19.4923C52.938 17.6509 55.107 17.5457 55.107 17.5457C55.107 17.5457 58.0696 16.1077 62.0197 13.9332C63.695 13.0213 64.9647 10.4609 66.6576 8.4442C66.6576 8.4442 67.1866 7.54983 67.7862 7.392C68.4034 7.23417 68.4034 7.60244 69.3557 6.95359C70.3785 6.25212 70.8546 5.63834 71.56 5.04209C72.2654 4.44585 72.7062 3.81453 72.6886 3.55148C72.6533 3.28843 72.3183 3.3235 72.0361 3.51641C71.7716 3.67424 71.3836 4.07758 70.9075 4.27048C70.4314 4.46339 70.7488 3.48133 71.0662 2.95524C71.3836 2.42914 72.2301 1.04374 72.0537 0.640402C71.9303 0.342279 71.4894 0.710548 71.4894 0.710548C71.4894 0.710548 71.5247 0.482572 71.2778 0.517645C71.0838 0.535182 70.9957 0.675475 70.9957 0.675475C70.9957 0.675475 70.9604 0.517645 70.7311 0.552719C70.4137 0.587792 70.2727 1.06128 70.0787 1.3594C69.9376 1.56984 69.92 1.63999 69.6554 1.85043C69.6025 1.90304 69.7436 1.51723 69.6202 1.46462C69.2322 1.23665 68.809 2.32392 68.5974 2.62204C68.3858 2.90263 66.9574 5.11224 66.5694 5.30514C66.2873 5.44544 65.7406 5.98907 65.4408 6.30473C64.2417 7.32185 62.9896 8.21622 61.7199 8.58449C58.6339 9.46132 58.2107 10.2855 55.6008 12.0743C52.9909 13.863 51.5625 13.2317 51.5625 13.2317C51.5625 13.2317 52.5147 10.3557 52.5676 8.79493C52.6029 7.23417 52.7087 5.18239 48.7409 3.00785C44.7732 0.833305 39.377 2.53436 36.8553 7.09388C34.3336 11.6534 38.319 16.4234 38.319 16.4234C38.319 16.4234 33.1873 16.6689 31.8295 17.0547C30.4893 17.4405 29.6075 18.7382 29.6075 18.7382C29.6075 18.7382 24.758 19.2994 21.3546 19.0363C17.9511 18.7733 16.752 18.2822 15.0238 18.7733C13.2956 19.2643 12.2905 20.1587 11.832 20.9653C11.5851 21.4213 9.57476 23.666 10.0333 24.5077C10.9326 26.1211 13.1369 23.3153 14.7064 23.0697C18.1275 22.5261 14.2126 25.6476 15.0591 26.1036C16.1877 26.7174 16.3288 25.0338 16.9107 24.5428C18.198 23.5082 19.1326 21.6843 20.9314 22.6664C23.9116 24.2973 31.0359 25.1391 31.0359 25.1391C31.0359 25.1391 31.3181 26.086 31.8647 27.9975C32.4291 29.909 30.9654 39.2385 32.1998 43.4473C33.4166 47.6561 32.7112 48.0594 32.9405 51.7246C33.1697 55.3897 33.4342 57.7923 35.2153 59.5634C36.7848 61.1067 35.5504 68.5773 35.5504 68.5773C35.5504 68.5773 35.1448 72.3652 34.122 73.6804C32.9757 73.2069 31.1417 72.5055 27.897 71.9794C23.5765 71.2954 22.0247 71.8215 20.2084 72.1372C18.392 72.4529 13.3838 73.3122 11.109 72.5406C8.83411 71.7689 7.52916 70.6992 6.52399 70.7343C5.51883 70.7693 4.76055 72.5406 4.19624 74.1188C3.6143 75.6971 3.06763 76.5214 1.88612 77.8191C0.704614 79.1168 0.193213 79.9936 0.246117 80.888C0.29902 81.7823 0.246117 82.0629 0.122675 82.2909C-0.000765898 82.5189 -0.106573 82.9573 0.263751 83.0976C0.634076 83.2379 0.545903 83.6763 0.775151 83.9218C1.0044 84.1849 1.12784 84.5005 1.32182 84.8688C1.5158 85.2371 1.92139 85.6229 2.22118 85.4475C2.52097 85.2721 2.71494 85.5001 3.05 84.0972C3.38506 82.6943 4.31968 81.6596 5.69517 80.66C7.0883 79.6604 8.92228 78.3978 11.9201 78.1347C14.918 77.8717 18.004 77.9944 20.6668 78.7661C23.312 79.5377 25.7456 80.5373 29.0961 81.151C32.6054 81.7823 36.2381 82.6416 37.6841 83.0099C39.1302 83.3782 40.0119 83.6412 41.6519 82.0629C41.7577 81.9577 41.8282 81.8174 41.8635 81.6771C41.9164 81.6596 41.9693 81.6421 42.0222 81.607C44.5616 80.3619 48.5646 57.8624 49.7108 55.758C50.8747 53.6711 50.1164 53.5659 51.6506 53.1275C53.2025 52.6891 64.3122 47.6035 69.0735 42.8861C71.1367 40.8343 72.2301 42.1496 74.2228 43.2369V43.2719C74.2228 43.2719 75.0692 43.798 76.3213 44.3066C76.6034 44.4293 76.9032 44.5696 77.2383 44.6924H77.2735C78.1553 44.973 79.1428 45.2536 80.1656 45.3412C83.1987 45.6218 87.2194 47.7613 89.6001 49.5325C91.9807 51.3037 93.6736 51.1809 94.7317 49.5676C95.7897 47.9717 95.2254 45.9901 96.213 44.2189C97.2005 42.4477 98.5407 41.9391 98.8934 40.1329C99.2461 38.3266 98.6465 38.3967 98.6465 37.3972Z" fill="white"/>
</g>
<defs>
<clipPath id="clip0_18_650">
<rect width="99" height="85" fill="white" transform="translate(0 0.5)"/>
</clipPath>
</defs>
</svg>
