<svg width="14" height="13" viewBox="0 0 14 13" fill="none" xmlns="http://www.w3.org/2000/svg">
<path d="M10.7556 8.73697C12.5524 6.30061 12.0347 2.86941 9.5983 1.07056C7.16194 -0.726253 3.73073 -0.208527 1.93189 2.22783C0.135075 4.66419 0.652801 8.09742 3.08916 9.89424C5.02403 11.3215 7.66342 11.3215 9.5983 9.89424L12.4752 12.7631C12.792 13.0798 13.3077 13.0798 13.6244 12.7631C13.9411 12.4463 13.9411 11.9306 13.6244 11.6139L10.7556 8.73697ZM2.49225 5.48849C2.49225 3.35871 4.22004 1.63092 6.34982 1.63092C8.4796 1.63092 10.2074 3.35871 10.2074 5.48849C10.2074 7.61827 8.4796 9.34606 6.34982 9.34606C4.22004 9.34606 2.49225 7.61827 2.49225 5.48849Z" fill="white"/>
</svg>
