<svg width="42" height="16" viewBox="0 0 42 16" fill="none" xmlns="http://www.w3.org/2000/svg">
<path d="M4.2363 3.88759H0V0.0012963H13.1652V3.88759H8.92889V15.2263H4.2363V3.88759ZM13.8937 0.0012963H26.6946V3.88759H18.5863V5.76204H26.6946V9.41889H18.5863V11.3387H26.6946V15.225H13.8937V0V0.0012963ZM27.4685 0.0012963H35.1672C40.2241 0.0012963 42 3.75018 42 7.59111C42 12.2539 39.5396 15.2263 34.2559 15.2263H27.4685V0.0012963ZM32.1611 11.34H33.9824C36.8978 11.34 37.3087 8.96259 37.3087 7.54574C37.3087 6.58518 36.9898 3.93426 33.6181 3.93426H32.1144L32.1611 11.3413V11.34Z" fill="#E62B1E"/>
</svg>
